<?xml version="1.0" standalone="no"?>
<!DOCTYPE svg PUBLIC "-//W3C//DTD SVG 20010904//EN"
 "http://www.w3.org/TR/2001/REC-SVG-20010904/DTD/svg10.dtd">
<svg version="1.0" xmlns="http://www.w3.org/2000/svg"
 width="512.000000pt" height="512.000000pt" viewBox="0 0 512.000000 512.000000"
 preserveAspectRatio="xMidYMid meet">
<metadata>
Created by potrace 1.16, written by Peter Selinger 2001-2019
</metadata>
<g transform="translate(0.000000,512.000000) scale(0.100000,-0.100000)"
fill="#000000" stroke="none">
<path d="M1048 5104 c-261 -47 -496 -173 -685 -367 -148 -152 -243 -308 -303
-494 -62 -194 -60 -130 -60 -1683 0 -1541 -2 -1488 56 -1672 60 -191 164 -360
312 -511 147 -148 310 -250 507 -316 189 -63 127 -61 1685 -61 1541 0 1488 -2
1672 56 186 59 351 158 499 301 202 196 327 429 374 699 23 130 23 2878 0
3008 -47 267 -171 501 -368 693 -152 148 -308 243 -494 303 -194 62 -129 60
-1692 59 -1169 -1 -1440 -3 -1503 -15z m2063 -925 c18 -18 20 -28 14 -78 -16
-136 -63 -249 -144 -351 -102 -127 -231 -210 -365 -233 -59 -10 -67 -9 -86 8
-24 22 -26 62 -5 160 48 230 248 435 486 499 72 20 76 19 100 -5z m167 -699
c159 -45 283 -128 303 -203 17 -63 -1 -106 -80 -193 -113 -124 -161 -247 -161
-417 0 -124 13 -183 61 -284 43 -90 116 -176 210 -248 63 -49 89 -94 89 -152
0 -82 -156 -347 -302 -514 -118 -134 -207 -181 -340 -181 -65 0 -98 7 -210 46
-179 62 -257 72 -374 52 -50 -8 -131 -31 -180 -50 -239 -92 -352 -71 -515 95
-231 233 -395 547 -470 900 -19 85 -23 137 -23 289 -1 163 2 195 22 270 30
113 109 270 173 348 132 159 347 263 543 261 89 0 183 -22 354 -84 57 -20 123
-37 146 -37 26 -1 104 20 206 55 91 31 190 61 220 66 83 15 244 6 328 -19z"/>
</g>
</svg>
